<?xml version="1.0" encoding="UTF-8"?>
<svg width="12px" height="13px" viewBox="0 0 12 13" version="1.1" xmlns="http://www.w3.org/2000/svg" xmlns:xlink="http://www.w3.org/1999/xlink">
    <!-- Generator: Sketch 59.1 (86144) - https://sketch.com -->
    <title>Untitled</title>
    <desc>Created with Sketch.</desc>
    <defs>
        <polygon id="path-1" points="0 0.564935065 12 0.564935065 12 12.5649351 0 12.5649351"></polygon>
    </defs>
    <g id="Page-1" stroke="none" stroke-width="1" fill="none" fill-rule="evenodd">
        <g id="Group">
            <mask id="mask-2" fill="white">
                <use xlink:href="#path-1"></use>
            </mask>
            <g id="path-1"></g>
            <path d="M2.55494494,0.866087287 C3.40454671,1.81357625 4.12232467,2.84513118 4.12232467,2.84513118 C4.12232467,2.84513118 4.71357296,3.65730995 4.19167776,4.18351625 C3.84660645,4.53026185 3.37680547,5.35546344 3.61948833,5.70665585 C3.86227707,6.05943641 6.85833036,8.94690083 6.85833036,8.94690083 C6.85833036,8.94690083 7.20064872,9.24589612 7.4304139,9.13758444 C7.65848496,9.02757874 8.7628402,8.37485 8.7628402,8.37485 C8.7628402,8.37485 9.21887644,8.22048204 9.71652454,8.56553361 C10.2158668,8.91227921 11.7588935,9.93684628 11.7588935,9.93684628 C11.7588935,9.93684628 12.198412,10.4898393 11.8906114,10.9770831 C11.5820696,11.4660208 10.6198088,12.4316147 10.6198088,12.4316147 C10.6198088,12.4316147 10.2366197,12.6916474 9.36965323,12.4854 C8.5027926,12.2799995 6.47863545,11.7962497 3.70271203,9.02228491 C1.13664788,6.45647336 0.00793964609,3.0037342 0.00793964609,3.0037342 C0.00793964609,3.0037342 -0.0744369958,2.40214382 0.291493177,1.86820854 C0.657317467,1.33077933 1.7392256,-0.0389451965 2.55409788,0.866934299 L2.55494494,0.866087287 Z" id="Fill-1" fill="#1F1F1F" fill-rule="nonzero" mask="url(#mask-2)"></path>
        </g>
    </g>
</svg>