<svg height="19" viewBox="0 0 14 19" width="14" xmlns="http://www.w3.org/2000/svg" xmlns:xlink="http://www.w3.org/1999/xlink"><mask id="a" fill="#fff"><path d="m.0000075 0h13.4999925v18.9999963h-13.4999925z" fill="#fff" fill-rule="evenodd"/></mask><g fill="none" fill-rule="evenodd"><path d="m11.4019193 9.54451785-4.63715826 7.95548215-4.75844075-7.87915216c-.53600911-.88946271-.82663279-1.91562687-.82663279-2.96761074 0-3.11304421 2.4721694-5.6532371 5.50184982-5.6532371s5.49815018 2.54019289 5.49815018 5.6532371c0 1.02078192-.2714295 2.02071234-.7777682 2.89128075" fill="#ef3e33"/><g fill="#000"><path d="m11.5824825 9.53035176-4.747275 7.84373434-4.8714375-7.76847653c-.5487375-.87696875-.8462625-1.88871875-.8462625-2.92592578 0-3.06931641 2.530875-5.57382813 5.6325-5.57382813s5.6287125 2.50451172 5.6287125 5.57382813c0 1.00644336-.277875 1.99232812-.7962375 2.85066797m-4.832475-9.53035547c-3.72195 0-6.75 2.99650781-6.75 6.6796875 0 1.24442578.3483375 2.45886719 1.0075875 3.51247661l5.3581875 8.5446933c.1026375.1636895.2834625.2631426.4779375.2631426h.0044625c.196125-.0015215.377325-.1040547.478125-.2706016l5.2216125-8.6274843c.6228375-1.0313438.9520875-2.21472466.9520875-3.42222661 0-3.68317969-3.02805-6.6796875-6.75-6.6796875" mask="url(#a)" transform="translate(.179688)"/><path d="m6.9296875 8.92388889c-1.20094722 0-2.17388889-.97619167-2.17388889-2.17388889 0-1.1947.97918889-2.17388889 2.17388889-2.17388889s2.17027778.97918889 2.17027778 2.17388889c0 1.18021944-.9503 2.17388889-2.17027778 2.17388889m0-5.42388889c-1.79205 0-3.25 1.45795-3.25 3.25 0 1.78060278 1.434225 3.25 3.25 3.25 1.83816389 0 3.25-1.48896944 3.25-3.25 0-1.79205-1.45795-3.25-3.25-3.25"/></g></g></svg>